# xmcd
# 
# Track frame offsets:
#     150
#     13536
#     23951
#     34261
#     44461
#     54299
#     67216
#     79416
#     90865
#     104127
#     115644
#     126089
#     137447
#     150230
#     160367
#     172278
#     182873
#     193748
#     203793
#     217087
#     229226
#     238898
#     248453
#     258415
#     268684
#     280971
#     293235
#     305319
#     315657
#     326593
# 
# Disc length: 4527
# 
# Revision: 1
# Processed by: cddbd v1.5.2PL0 Copyright (c) Steve Scherf et al.
# Submitted via: fre:ac v1.0.31
# 
DISCID=b911ad1e
DTITLE=Little Willie John - Sleep: The Singles As and Bs 1955-1961 [CD1]
DYEAR=2013
DGENRE=R&B
TTITLE0=All Around The World
TTITLE1=Don't Leave Me Dear
TTITLE2=Need Your Love So Bad
TTITLE3=Home At Last
TTITLE4=Are You Ever Coming Back
TTITLE5=I'm Stickin' With You Baby
TTITLE6=Fever
TTITLE7=Letter From My Darling
TTITLE8=Do Something For Me
TTITLE9=My Nerves
TTITLE10=I've Been Around
TTITLE11=Suffering With The Blues
TTITLE12=Will The Sun Shine Tomorrow
TTITLE13=A Little Bit Of Loving
TTITLE14=Love, Life And Money
TTITLE15=You Got To Get Up Early In The Morning
TTITLE16=I've Got To Go Cry
TTITLE17=Look What You've Done To Me
TTITLE18=Young Girl
TTITLE19=If I Thought You Needed Me
TTITLE20=Uh Uh Baby
TTITLE21=Dinner Date
TTITLE22=Person To Person
TTITLE23=Until You Do
TTITLE24=Talk To Me, Talk To Me
TTITLE25=Spasms
TTITLE26=You're A Sweetheart
TTITLE27=Let's Rock While The Rockin's Good
TTITLE28=Tell It Like It Is
TTITLE29=Don't Be Ashamed To Call My Name
EXTD=
EXTT0=
EXTT1=
EXTT2=
EXTT3=
EXTT4=
EXTT5=
EXTT6=
EXTT7=
EXTT8=
EXTT9=
EXTT10=
EXTT11=
EXTT12=
EXTT13=
EXTT14=
EXTT15=
EXTT16=
EXTT17=
EXTT18=
EXTT19=
EXTT20=
EXTT21=
EXTT22=
EXTT23=
EXTT24=
EXTT25=
EXTT26=
EXTT27=
EXTT28=
EXTT29=
PLAYORDER=
